<svg xmlns="http://www.w3.org/2000/svg" viewBox="0 0 48 48"><title>10-Book</title><g id="_10-Book" data-name="10-Book"><rect x="13" y="41" width="28" height="2"/><path d="M2,42H0V6A6.006,6.006,0,0,1,6,0H20V2H6A4,4,0,0,0,2,6Z"/><path d="M41,48H6A6,6,0,0,1,6,36H41a1,1,0,0,1,1,1V47A1,1,0,0,1,41,48ZM6,38a4,4,0,0,0,0,8H40V38Z"/><rect x="6" y="1" width="2" height="36"/><path d="M14,12H12V7a1,1,0,0,1,1-1h3V8H14Z"/><path d="M16,20H13a1,1,0,0,1-1-1V15h2v3h2Z"/><rect x="12" y="14" width="4" height="2"/><rect x="12" y="23" width="2" height="2"/><rect x="16" y="23" width="2" height="2"/><rect x="9" y="41" width="2" height="2"/><path d="M33,30A15,15,0,1,1,48,15,15.017,15.017,0,0,1,33,30ZM33,2A13,13,0,1,0,46,15,13.015,13.015,0,0,0,33,2Z"/><rect x="40" y="32" width="2" height="5"/><path d="M33,12a3,3,0,1,1,3-3A3,3,0,0,1,33,12Zm0-4a1,1,0,1,0,1,1A1,1,0,0,0,33,8Z"/><path d="M37,24H33a1,1,0,0,1-1-1V16H29V14h4a1,1,0,0,1,1,1v7h3Z"/></g></svg>